<svg version="1.1" id="Layer_1" xmlns="http://www.w3.org/2000/svg" xmlns:xlink="http://www.w3.org/1999/xlink" x="0px" y="0px"
	 width="100%" viewBox="0 0 225 224" enable-background="new 0 0 225 224" xml:space="preserve">
<path fill="#FFFFFF" opacity="1.000000" stroke="none" 
	d="
M101.000000,225.000000 
	C67.333336,225.000000 34.166672,225.000000 1.000005,225.000000 
	C1.000003,150.333344 1.000003,75.666679 1.000001,1.000015 
	C75.999992,1.000010 150.999985,1.000010 225.999969,1.000005 
	C225.999985,75.666649 225.999985,150.333298 226.000000,224.999969 
	C184.500000,225.000000 143.000000,225.000000 101.000000,225.000000 
M109.089287,89.083557 
	C109.089287,89.083557 109.186333,89.110809 108.646935,89.271469 
	C108.492836,89.596832 108.338737,89.922203 108.224861,90.290161 
	C108.224861,90.290161 108.248222,90.343887 107.482910,90.156929 
	C103.701096,89.727974 99.919289,89.299026 95.965767,88.185982 
	C94.597664,85.159821 93.011162,82.922112 89.438118,81.438278 
	C80.604935,77.770004 71.533257,75.338394 62.095264,75.222427 
	C55.905495,75.146385 49.407101,75.860260 43.581562,77.814270 
	C38.502975,79.517731 34.172985,83.453003 28.990788,86.732101 
	C28.990788,87.662720 28.990788,89.319084 28.869766,91.443192 
	C28.721495,91.751762 28.484718,91.959427 27.349377,92.040283 
	C26.589882,93.720352 25.830389,95.400421 25.059488,97.064125 
	C25.059488,97.064125 25.089916,97.084167 24.334887,97.149559 
	C22.851593,101.576607 21.368301,106.003654 20.204451,109.477295 
	C20.960688,111.651123 21.528154,113.133377 21.989897,114.647865 
	C22.549919,116.484695 23.118034,118.328323 23.511814,120.204857 
	C24.706734,125.899216 28.499647,129.672791 33.001186,132.778320 
	C36.764637,135.374649 40.576881,138.108414 44.760365,139.822495 
	C48.164639,141.217316 52.158066,141.717941 55.877346,141.667374 
	C60.923515,141.598770 66.361023,144.110840 71.605705,139.801788 
	C72.040581,139.787460 72.475449,139.773148 73.407234,140.416916 
	C76.489662,141.220184 79.431755,141.905472 82.015915,138.919189 
	C82.556168,138.294876 84.853500,138.467865 85.839249,139.080704 
	C89.582306,141.407776 96.193451,138.695953 96.229385,134.341309 
	C96.260780,130.537537 97.682358,128.837952 101.412331,128.880447 
	C101.806740,128.884933 102.206039,128.458679 102.572670,128.249588 
	C102.183495,126.861832 101.834152,125.616081 101.484802,124.370338 
	C101.908958,124.121849 102.333115,123.873367 102.757271,123.624886 
	C104.185074,125.633080 105.835358,127.521179 106.996872,129.673111 
	C109.899277,135.050323 116.823067,138.479218 122.698021,136.871262 
	C123.480598,137.215454 124.263184,137.559647 125.379967,138.425034 
	C125.767952,138.426895 126.155945,138.428772 127.175819,138.479721 
	C127.770630,138.685471 128.365448,138.891205 129.154068,139.819138 
	C131.771988,139.998932 134.389893,140.178726 137.784546,140.288528 
	C138.820526,140.336044 139.856491,140.383560 141.155838,141.066528 
	C143.130463,140.804794 145.105087,140.543076 147.599579,140.083603 
	C147.952942,139.972168 148.306290,139.860718 149.313202,139.906601 
	C149.536850,139.920456 149.760483,139.934311 150.426956,140.511719 
	C152.632034,140.590057 155.022690,144.217728 157.160873,139.854492 
	C157.160873,139.854492 157.506714,139.831467 158.449615,139.927429 
	C159.775635,139.351227 161.101669,138.775040 162.951813,138.436310 
	C163.342941,138.846313 163.734070,139.256302 164.143951,140.442368 
	C167.445694,142.621750 170.748337,144.968323 174.487656,140.038132 
	C174.868790,139.978104 175.249924,139.918076 176.478989,139.926865 
	C176.761963,139.908508 177.044952,139.890137 177.728210,139.830200 
	C177.728210,139.830200 177.994339,140.132095 178.075119,140.815231 
	C179.116226,143.919510 181.190460,143.904099 183.842697,142.952423 
	C186.398697,142.035248 189.076096,141.456360 192.239868,140.443771 
	C192.831573,140.531647 193.423264,140.619537 194.050644,141.440140 
	C194.935654,142.653732 195.820648,143.867325 197.280792,145.869583 
	C198.497162,143.396912 199.255280,141.855774 200.508865,140.089844 
	C200.688446,140.064590 200.868042,140.039322 201.739838,140.149048 
	C202.670425,141.697327 203.600998,143.245590 203.846939,143.654785 
	C207.239532,143.371506 209.658127,143.022781 212.078766,143.007904 
	C214.595032,142.992462 215.314133,141.914001 214.746170,139.836029 
	C214.746170,139.836029 214.587708,139.671936 215.332321,139.803696 
	C217.407547,137.012100 219.482788,134.220505 222.154816,130.626099 
	C218.768524,129.887299 216.771515,129.451599 214.539948,128.128204 
	C214.611267,125.081291 214.682587,122.034370 215.479004,118.920059 
	C215.923080,118.404770 216.367142,117.889473 216.811203,117.374176 
	C216.129654,116.919899 215.448120,116.465622 214.471237,115.680992 
	C214.255157,115.297203 214.039078,114.913422 213.863403,113.736771 
	C210.808289,109.810440 204.081757,108.557327 200.489410,111.526962 
	C199.582993,112.276268 199.122528,114.133675 199.283432,115.374748 
	C199.368790,116.032990 201.196213,116.539497 202.292358,116.976112 
	C204.189804,117.731918 206.130142,118.380066 208.045319,119.718491 
	C208.046875,120.150673 208.048431,120.582855 207.279831,121.008614 
	C206.177292,121.700432 205.074753,122.392242 203.413757,122.970299 
	C202.944611,122.651192 202.475449,122.332085 201.679077,121.500046 
	C201.296951,121.416878 200.914841,121.333710 200.004242,121.247513 
	C199.676453,121.124062 199.348679,121.000603 198.783508,120.471367 
	C198.570679,120.231293 198.313660,120.055962 197.912079,119.224274 
	C197.560455,118.678925 197.258743,117.699768 196.849792,117.652718 
	C189.705597,116.830849 190.086624,111.490189 190.001602,106.420662 
	C189.979294,105.090294 190.122009,103.744774 189.968811,102.431908 
	C189.745270,100.516197 189.958649,97.747269 188.833145,96.930611 
	C187.221207,95.760986 184.569336,96.024574 181.936066,95.609085 
	C182.386429,94.469070 182.897293,93.175888 183.278976,92.209724 
	C182.300110,90.799347 181.611969,89.310204 180.494293,88.293045 
	C177.435745,85.509552 176.385513,79.230095 169.236526,81.919136 
	C164.376358,80.201408 159.633743,77.739014 154.627167,76.948700 
	C147.909592,75.888313 140.981277,75.771500 134.155960,75.902534 
	C128.110413,76.018608 122.515320,78.195137 116.982727,80.819870 
	C113.821716,82.319496 111.680954,83.815857 111.008110,87.637810 
	C110.878593,87.895096 110.674911,88.061752 109.794914,88.236244 
	C109.563301,88.552086 109.331688,88.867935 109.089287,89.083557 
M24.983244,84.295975 
	C25.870377,83.787880 26.757507,83.279785 27.644638,82.771690 
	C26.920446,82.225227 26.196255,81.678757 25.472067,81.132294 
	C25.151777,82.014175 24.831488,82.896049 24.983244,84.295975 
M104.132065,86.725189 
	C104.696609,85.753319 105.261154,84.781441 106.197540,83.169449 
	C102.302917,84.628952 102.302917,84.628952 104.132065,86.725189 
M19.047718,127.212158 
	C19.817606,127.450073 20.587496,127.687981 21.357386,127.925888 
	C21.026714,126.809616 20.696041,125.693336 20.365376,124.577065 
	C19.917307,125.225662 19.469236,125.874260 19.047718,127.212158 
z"/>
<path fill="#F7FCF9" opacity="1.000000" stroke="none" 
	d="
M157.011917,140.167450 
	C155.022690,144.217728 152.632034,140.590057 150.202194,139.898300 
	C149.648758,138.522629 149.320068,137.760361 148.936813,136.564392 
	C148.252228,133.657547 147.622223,131.184418 146.748474,128.511200 
	C145.335175,128.507477 144.165649,128.703842 142.554031,128.956940 
	C134.159393,130.101425 127.876030,125.636238 121.141724,122.517212 
	C121.152443,122.327530 120.963524,121.997871 120.978142,121.696381 
	C120.656944,121.250748 120.321121,121.106598 119.851318,120.870071 
	C119.717323,120.777695 119.410393,120.886070 119.331131,120.575996 
	C118.873291,119.792030 118.494720,119.318146 118.069977,118.897308 
	C118.023804,118.950363 118.148155,118.884621 118.082504,118.629105 
	C117.728256,118.190926 117.439667,118.008270 117.136841,117.877678 
	C117.122620,117.929741 117.229523,117.914772 117.211006,117.575111 
	C116.832108,116.719757 116.471725,116.204063 116.147263,115.510132 
	C116.183189,115.331902 116.025696,115.004128 116.093597,114.737617 
	C115.888893,114.263527 115.616272,114.055946 115.286530,113.416672 
	C115.179527,110.372040 115.129646,107.759117 115.402069,104.993698 
	C118.572342,100.944534 121.420311,97.047859 124.572311,92.973419 
	C130.703613,89.246681 136.960022,87.123901 144.025513,87.418106 
	C148.191635,88.967911 152.176682,90.187790 156.294708,91.700989 
	C157.179382,92.375488 157.931091,92.756668 158.825989,93.449646 
	C161.500916,97.496429 165.014191,100.932838 166.268448,105.056381 
	C167.364777,108.660706 165.919250,113.038170 165.524002,117.983452 
	C169.593674,117.983452 174.299698,117.983452 179.004272,118.365509 
	C179.019714,119.765984 179.036621,120.784386 178.789001,121.871750 
	C178.350342,121.994576 178.176224,122.048454 177.618744,122.192780 
	C177.194962,123.846649 177.154510,125.410088 177.038818,127.313354 
	C177.013794,128.111755 177.064011,128.570312 177.048462,129.428299 
	C177.064148,133.680542 175.398209,136.192551 171.348663,136.054230 
	C167.048294,135.907379 166.742264,132.736633 166.794937,129.317200 
	C166.912537,121.681084 166.848602,121.688866 159.060150,120.997757 
	C158.676498,120.963707 158.326767,120.547592 157.882462,120.258034 
	C159.110092,118.490547 160.234344,116.871918 161.398361,115.196014 
	C153.320618,111.540459 152.981598,120.503822 149.394012,121.556892 
	C150.267654,126.196495 151.661346,130.649597 151.786194,135.138000 
	C151.898148,139.162521 153.243134,140.582413 157.011917,140.167450 
z"/>
<path fill="#EDFAF9" opacity="1.000000" stroke="none" 
	d="
M96.137474,88.870071 
	C99.919289,89.299026 103.701096,89.727974 107.791512,90.531311 
	C107.905899,91.448952 107.711685,91.992218 107.505295,92.553925 
	C107.493126,92.572365 107.468582,92.609337 107.171555,92.737053 
	C106.203690,94.208313 105.532860,95.551849 104.914551,96.953339 
	C104.967087,97.011284 104.881157,96.881226 104.563293,97.056534 
	C103.880470,97.971634 103.219780,98.702316 103.196686,99.452629 
	C102.984077,106.362282 98.656158,106.771553 93.116295,106.616333 
	C81.377106,106.287422 69.622292,106.516060 57.719791,106.516060 
	C57.598999,108.677094 57.645908,110.156281 57.411850,111.589577 
	C56.715935,115.851112 58.569378,117.039734 62.660664,116.848114 
	C70.115616,116.498955 77.592476,116.617599 85.111984,116.954704 
	C85.151703,117.923767 85.139633,118.479187 84.854584,119.230713 
	C80.467422,125.778923 74.073425,128.072876 66.715820,129.215088 
	C65.918716,129.266479 65.468353,129.371582 64.641281,129.398499 
	C63.503166,129.382965 62.741779,129.445602 61.655945,129.383041 
	C60.871090,129.268219 60.410686,129.278580 59.593163,129.177078 
	C58.490620,129.066727 57.745197,129.068237 56.676506,128.954346 
	C55.906139,128.905563 55.459038,128.972137 54.700733,128.881683 
	C53.099274,128.446548 51.809017,128.168472 50.380219,127.594994 
	C49.870190,127.107948 49.498695,126.916290 49.132851,126.796875 
	C49.138500,126.869118 49.267376,126.802849 49.159264,126.547592 
	C48.705276,126.208626 48.359409,126.124916 47.746010,125.834572 
	C39.363583,118.339767 35.775333,109.819763 40.538185,98.922630 
	C43.606602,93.885162 48.014221,91.114250 53.463345,89.216614 
	C54.925522,88.857666 56.025883,88.502357 57.579315,88.171585 
	C67.084404,87.434052 75.506271,88.623657 82.111313,95.746025 
	C82.714600,96.396561 83.799858,96.926140 84.673973,96.945702 
	C89.710953,97.058418 94.751747,97.000641 100.820213,97.000641 
	C98.753838,93.776756 97.282944,91.481918 95.893021,89.107437 
	C95.973991,89.027794 96.137474,88.870071 96.137474,88.870071 
z"/>
<path fill="#1B8755" opacity="1.000000" stroke="none" 
	d="
M157.086395,140.010971 
	C153.243134,140.582413 151.898148,139.162521 151.786194,135.138000 
	C151.661346,130.649597 150.267654,126.196495 149.394012,121.556892 
	C152.981598,120.503822 153.320618,111.540459 161.398361,115.196014 
	C160.234344,116.871918 159.110092,118.490547 157.882462,120.258034 
	C158.326767,120.547592 158.676498,120.963707 159.060150,120.997757 
	C166.848602,121.688866 166.912537,121.681084 166.794937,129.317200 
	C166.742264,132.736633 167.048294,135.907379 171.348663,136.054230 
	C175.398209,136.192551 177.064148,133.680542 177.306885,129.698807 
	C177.631073,131.903976 177.631073,134.238052 177.631073,137.385864 
	C179.664764,136.125854 181.263657,135.135239 182.872009,134.186661 
	C182.881485,134.228699 182.894928,134.313797 182.920959,134.771667 
	C182.813065,136.680801 182.679123,138.132080 182.522095,139.833633 
	C180.873718,139.942291 179.434036,140.037201 177.994339,140.132111 
	C177.994339,140.132095 177.728210,139.830200 177.367722,139.621231 
	C176.548508,139.560867 176.089783,139.709457 175.631058,139.858047 
	C175.249924,139.918076 174.868790,139.978104 173.881241,140.154724 
	C170.224945,140.069641 167.175079,139.867966 164.125198,139.666306 
	C163.734070,139.256302 163.342941,138.846313 162.641296,137.951782 
	C161.633774,133.340225 160.936783,129.213196 160.239792,125.086151 
	C158.705414,125.738129 157.677032,126.835472 157.613251,127.986282 
	C157.394989,131.924545 157.515442,135.881592 157.506714,139.831467 
	C157.506714,139.831467 157.160873,139.854492 157.086395,140.010971 
M163.337189,132.616364 
	C163.652756,133.133606 163.968307,133.650848 164.170471,133.982239 
	C164.170471,130.685562 164.170471,127.430328 164.170471,124.175095 
	C163.510941,124.231789 162.851395,124.288475 162.191864,124.345161 
	C162.492599,126.864655 162.793350,129.384155 163.337189,132.616364 
z"/>
<path fill="#F7FCF9" opacity="1.000000" stroke="none" 
	d="
M169.993805,82.007782 
	C176.385513,79.230095 177.435745,85.509552 180.494293,88.293045 
	C181.611969,89.310204 182.300110,90.799347 183.278976,92.209724 
	C182.897293,93.175888 182.386429,94.469070 181.936066,95.609085 
	C184.569336,96.024574 187.221207,95.760986 188.833145,96.930611 
	C189.958649,97.747269 189.745270,100.516197 189.968811,102.431908 
	C190.122009,103.744774 189.979294,105.090294 190.001602,106.420662 
	C190.086624,111.490189 189.705597,116.830849 196.849792,117.652718 
	C197.258743,117.699768 197.560455,118.678925 197.545227,119.598083 
	C195.117310,120.288757 193.056244,120.605621 190.694733,121.065735 
	C189.206299,121.803879 188.018280,122.398788 186.465454,122.984444 
	C185.234055,122.572762 184.068878,122.399307 183.553711,121.727440 
	C181.546249,119.109451 181.672043,116.272148 182.303925,113.036995 
	C182.866760,110.155411 185.370468,106.346123 180.708008,104.172493 
	C180.725906,104.131248 180.782883,104.200844 180.854874,103.836647 
	C180.573120,102.640564 180.219360,101.808685 179.651917,100.720337 
	C178.578491,98.471039 177.718781,96.478195 176.816727,94.176361 
	C176.481628,93.590736 176.188858,93.314117 175.937286,93.033478 
	C175.978470,93.029442 175.933044,93.098640 175.918335,92.749176 
	C175.425110,91.976868 174.946579,91.554024 174.300110,91.111275 
	C173.904861,90.963730 173.813782,90.771553 173.811218,90.197044 
	C173.449158,89.610519 173.134827,89.341805 172.877182,89.069702 
	C172.933868,89.066307 172.911362,89.177620 172.821884,88.910728 
	C172.412018,88.472633 172.091614,88.301422 171.835754,88.115097 
	C171.900284,88.099991 171.886322,88.231812 171.785461,87.941986 
	C171.329834,87.475365 170.975082,87.298569 170.423248,87.094620 
	C169.961975,86.935501 169.824020,86.721985 169.864960,85.987244 
	C169.943008,84.367638 169.968414,83.187714 169.993805,82.007782 
z"/>
<path fill="#119578" opacity="1.000000" stroke="none" 
	d="
M121.130997,122.706902 
	C127.876030,125.636238 134.159393,130.101425 142.952759,129.031372 
	C144.859787,128.936493 145.926010,128.823883 146.992218,128.711273 
	C147.622223,131.184418 148.252228,133.657547 148.810547,136.892029 
	C148.712463,138.352005 148.686066,139.050644 148.659653,139.749283 
	C148.306290,139.860718 147.952942,139.972168 146.907349,140.067551 
	C144.440887,140.178024 142.666687,140.304550 140.892471,140.431076 
	C139.856491,140.383560 138.820526,140.336044 137.013824,140.173462 
	C133.815491,139.737915 131.387878,139.417419 128.960266,139.096939 
	C128.365448,138.891205 127.770630,138.685471 126.647049,138.279434 
	C125.760773,138.020706 125.403267,137.962280 125.045769,137.903839 
	C124.263184,137.559647 123.480598,137.215454 122.172043,136.624817 
	C120.048088,135.344116 118.450111,134.309860 117.036858,132.989288 
	C119.253174,131.031906 122.738487,136.933273 123.626106,131.563019 
	C126.169823,132.312668 128.391129,132.967300 130.612427,133.621933 
	C130.849091,133.144135 131.085754,132.666351 131.322403,132.188553 
	C125.874420,131.032944 122.535034,127.815933 121.130997,122.706902 
z"/>
<path fill="#139A9F" opacity="1.000000" stroke="none" 
	d="
M67.062561,129.268814 
	C74.073425,128.072876 80.467422,125.778923 85.199829,119.209213 
	C87.595291,118.268173 89.372520,117.544731 91.149757,116.821297 
	C91.383110,117.245865 91.616463,117.670425 91.849823,118.094986 
	C90.971703,119.802048 90.093590,121.509109 88.636887,124.340958 
	C91.827751,125.014305 94.459679,125.569710 97.030014,126.456650 
	C90.582794,134.141998 81.897011,137.229477 72.910324,139.758820 
	C72.475449,139.773148 72.040581,139.787460 70.836189,139.867386 
	C62.345421,139.913483 54.458012,141.374557 47.683167,137.266479 
	C53.780548,137.441605 59.379311,137.715256 65.423813,137.994980 
	C70.576180,137.302704 75.282822,136.604340 79.989464,135.905975 
	C80.142235,135.097290 80.295006,134.288589 80.447777,133.479904 
	C78.062431,132.320557 75.760147,130.911224 73.265053,130.082153 
	C71.322006,129.436493 69.138954,129.513153 67.062561,129.268814 
z"/>
<path fill="#EDFAF9" opacity="1.000000" stroke="none" 
	d="
M73.158783,140.087860 
	C81.897011,137.229477 90.582794,134.141998 97.028137,126.434448 
	C97.087860,126.080719 97.061211,126.046829 97.351959,125.871834 
	C97.856682,124.833412 98.070671,123.969994 98.273239,123.131821 
	C98.261826,123.157066 98.316124,123.170982 98.629677,123.049461 
	C100.233261,120.988373 101.523285,119.048805 102.924759,117.444397 
	C106.201584,124.228714 110.154449,129.975784 116.852142,133.275604 
	C118.450111,134.309860 120.048088,135.344116 121.843834,136.629852 
	C116.823067,138.479218 109.899277,135.050323 106.996872,129.673111 
	C105.835358,127.521179 104.185074,125.633080 102.757271,123.624886 
	C102.333115,123.873367 101.908958,124.121849 101.484802,124.370338 
	C101.834152,125.616081 102.183495,126.861832 102.572670,128.249588 
	C102.206039,128.458679 101.806740,128.884933 101.412331,128.880447 
	C97.682358,128.837952 96.260780,130.537537 96.229385,134.341309 
	C96.193451,138.695953 89.582306,141.407776 85.839249,139.080704 
	C84.853500,138.467865 82.556168,138.294876 82.015915,138.919189 
	C79.431755,141.905472 76.489662,141.220184 73.158783,140.087860 
z"/>
<path fill="#EDFAF9" opacity="1.000000" stroke="none" 
	d="
M28.990788,90.975456 
	C28.990788,89.319084 28.990788,87.662720 28.990788,86.732101 
	C34.172985,83.453003 38.502975,79.517731 43.581562,77.814270 
	C49.407101,75.860260 55.905495,75.146385 62.095264,75.222427 
	C71.533257,75.338394 80.604935,77.770004 89.438118,81.438278 
	C93.011162,82.922112 94.597664,85.159821 96.051620,88.528030 
	C96.137474,88.870071 95.973991,89.027794 95.572922,88.996399 
	C88.751152,82.430656 80.507713,79.183586 71.834198,78.060844 
	C65.255470,77.209251 58.399837,78.496735 51.286911,78.763184 
	C47.635750,79.751396 44.152649,80.405769 41.157017,81.984894 
	C38.419239,83.428085 36.208961,85.871964 33.546486,87.929283 
	C33.045235,88.152901 32.890396,88.401123 32.530022,88.768227 
	C31.128807,89.530548 30.059797,90.253006 28.990788,90.975456 
z"/>
<path fill="#EDFAF9" opacity="1.000000" stroke="none" 
	d="
M47.184547,137.365021 
	C54.458012,141.374557 62.345421,139.913483 70.531853,139.988983 
	C66.361023,144.110840 60.923515,141.598770 55.877346,141.667374 
	C52.158066,141.717941 48.164639,141.217316 44.760365,139.822495 
	C40.576881,138.108414 36.764637,135.374649 33.001186,132.778320 
	C28.499647,129.672791 24.706734,125.899216 23.511814,120.204857 
	C23.118034,118.328323 22.549919,116.484695 21.989897,114.647865 
	C21.528154,113.133377 20.960688,111.651123 20.204451,109.477295 
	C21.368301,106.003654 22.851593,101.576607 24.676472,97.532532 
	C24.885555,103.983170 24.753057,110.050842 24.641476,116.500824 
	C27.421398,120.951576 30.180405,125.020027 32.937241,129.069641 
	C32.935066,129.050797 32.905449,129.081680 33.011787,129.410751 
	C37.806931,132.281555 42.495739,134.823288 47.184547,137.365021 
z"/>
<path fill="#EDFAF9" opacity="1.000000" stroke="none" 
	d="
M169.615173,81.963455 
	C169.968414,83.187714 169.943008,84.367638 169.545349,85.831032 
	C167.476028,85.324013 165.778992,84.533524 163.905426,83.463501 
	C162.188507,82.355606 160.648117,81.527237 158.858734,80.427856 
	C149.051422,76.108650 139.101318,78.278641 129.290024,78.381073 
	C128.436813,78.389984 127.592400,79.243607 126.770004,79.642151 
	C126.796104,79.579445 126.668587,79.532616 126.465775,79.504303 
	C126.262962,79.475983 125.942245,79.730713 125.585892,79.737938 
	C123.760361,80.417458 122.291191,81.089752 120.842484,81.773849 
	C120.862961,81.785645 120.843643,81.771294 120.559410,81.809410 
	C119.804939,82.143166 119.334702,82.438797 118.537659,82.802170 
	C116.786240,83.872360 115.361633,84.874809 113.623207,85.953232 
	C112.575279,86.434875 111.841171,86.840530 111.107063,87.246185 
	C111.680954,83.815857 113.821716,82.319496 116.982727,80.819870 
	C122.515320,78.195137 128.110413,76.018608 134.155960,75.902534 
	C140.981277,75.771500 147.909592,75.888313 154.627167,76.948700 
	C159.633743,77.739014 164.376358,80.201408 169.615173,81.963455 
z"/>
<path fill="#278B5C" opacity="1.000000" stroke="none" 
	d="
M214.753906,118.987457 
	C214.682587,122.034370 214.611267,125.081291 214.524643,129.009125 
	C214.535461,133.150665 214.561584,136.411301 214.587708,139.671936 
	C214.587708,139.671936 214.746170,139.836029 214.325348,139.842957 
	C211.529816,140.203690 209.021576,140.784470 209.171021,136.636597 
	C209.197006,135.506104 209.128632,134.748032 209.132309,133.659622 
	C209.157166,132.883484 209.109970,132.437683 209.165771,131.564224 
	C209.200592,129.093887 209.132385,127.051231 209.136261,124.635666 
	C209.162903,123.507706 209.117493,122.752632 209.185852,121.632217 
	C209.222733,120.514511 209.145859,119.762138 209.157761,118.642006 
	C208.715240,114.512344 211.216476,114.456657 213.822998,114.529640 
	C214.039078,114.913422 214.255157,115.297203 214.483521,116.207214 
	C214.581848,117.484772 214.667877,118.236115 214.753906,118.987457 
z"/>
<path fill="#F7FCF9" opacity="1.000000" stroke="none" 
	d="
M213.843201,114.133209 
	C211.216476,114.456657 208.715240,114.512344 208.903290,118.652641 
	C208.390869,119.045151 208.221680,119.059265 208.052490,119.073372 
	C206.130142,118.380066 204.189804,117.731918 202.292358,116.976112 
	C201.196213,116.539497 199.368790,116.032990 199.283432,115.374748 
	C199.122528,114.133675 199.582993,112.276268 200.489410,111.526962 
	C204.081757,108.557327 210.808289,109.810440 213.843201,114.133209 
z"/>
<path fill="#1F8658" opacity="1.000000" stroke="none" 
	d="
M186.830276,122.993698 
	C188.018280,122.398788 189.206299,121.803879 191.139618,121.101700 
	C194.263580,120.955330 196.642227,120.916237 199.020889,120.877144 
	C199.348679,121.000603 199.676453,121.124062 200.436676,121.498932 
	C201.248169,121.837898 201.627228,121.925430 202.006302,122.012970 
	C202.475449,122.332085 202.944611,122.651192 203.767487,123.296455 
	C204.663223,124.122063 205.205231,124.621506 205.836182,125.507622 
	C205.944656,126.930733 205.964188,127.967163 205.814117,129.098633 
	C205.777924,129.467209 205.911316,129.740768 206.143448,130.342316 
	C206.173798,131.115433 206.105392,131.560562 205.666687,132.029877 
	C204.555954,132.089874 203.815536,132.125687 203.063507,131.786285 
	C202.336823,130.586563 201.621719,129.762085 200.998337,128.557159 
	C199.662994,124.129944 196.109818,124.819283 193.038025,124.248817 
	C192.596130,123.392387 191.997009,122.283966 191.637238,122.356857 
	C189.976822,122.693283 188.383026,123.358574 186.812714,123.680130 
	C186.860092,123.454277 186.830276,122.993706 186.830276,122.993698 
z"/>
<path fill="#1E9CC4" opacity="1.000000" stroke="none" 
	d="
M24.620560,116.118515 
	C24.753057,110.050842 24.885555,103.983170 25.053986,97.499832 
	C25.089916,97.084167 25.059488,97.064125 25.363041,96.920029 
	C26.497541,95.206017 27.328489,93.636101 28.159439,92.066177 
	C28.484718,91.959427 28.721495,91.751762 28.930279,91.209320 
	C30.059797,90.253006 31.128807,89.530548 32.536205,89.170685 
	C30.089359,93.902184 32.763096,100.839600 26.137184,103.570099 
	C25.272099,103.926605 25.038816,106.600403 25.077045,108.187286 
	C25.139776,110.791130 25.664930,113.383820 25.651146,116.012489 
	C25.078325,116.068680 24.849443,116.093597 24.620560,116.118515 
z"/>
<path fill="#F7FCF9" opacity="1.000000" stroke="none" 
	d="
M203.075119,132.161499 
	C203.815536,132.125687 204.555954,132.089874 206.044022,132.060669 
	C207.548691,132.042145 208.305725,132.017029 209.062744,131.991913 
	C209.109970,132.437683 209.157166,132.883484 208.874695,133.843536 
	C208.722229,135.241547 208.899429,136.125290 209.076630,137.009033 
	C209.021576,140.784470 211.529816,140.203690 214.277054,139.739624 
	C215.314133,141.914001 214.595032,142.992462 212.078766,143.007904 
	C209.658127,143.022781 207.239532,143.371506 203.846939,143.654785 
	C203.600998,143.245590 202.670425,141.697327 201.536011,139.817108 
	C202.196030,138.980621 203.059875,138.476059 204.168167,137.911621 
	C204.611267,137.591476 204.809921,137.331192 205.184570,136.779266 
	C204.563492,135.326569 203.766418,134.165543 202.997833,132.794037 
	C203.026306,132.583542 203.075119,132.161484 203.075119,132.161499 
z"/>
<path fill="#2A875D" opacity="1.000000" stroke="none" 
	d="
M202.969345,133.004517 
	C203.766418,134.165543 204.563492,135.326569 204.928223,136.823288 
	C204.305145,137.429810 204.114426,137.700638 203.923706,137.971497 
	C203.059875,138.476059 202.196030,138.980621 201.189911,139.749634 
	C200.868042,140.039322 200.688446,140.064590 199.883362,140.129608 
	C197.510223,140.348724 195.762589,140.528076 194.014969,140.707428 
	C193.423264,140.619537 192.831573,140.531647 191.855164,140.386902 
	C191.170639,140.215881 190.941696,140.019257 190.833038,139.358795 
	C190.610779,138.305237 190.339096,137.633072 190.058716,136.649399 
	C190.032013,135.922821 190.014008,135.507721 190.354889,135.140656 
	C195.930344,137.728119 198.245987,137.255829 201.109207,133.085541 
	C201.975006,133.019806 202.472183,133.012161 202.969345,133.004517 
z"/>
<path fill="#F7FCF9" opacity="1.000000" stroke="none" 
	d="
M157.978165,139.879456 
	C157.515442,135.881592 157.394989,131.924545 157.613251,127.986282 
	C157.677032,126.835472 158.705414,125.738129 160.239792,125.086151 
	C160.936783,129.213196 161.633774,133.340225 162.379242,137.833069 
	C161.101669,138.775040 159.775635,139.351227 157.978165,139.879456 
z"/>
<path fill="#F7FCF9" opacity="1.000000" stroke="none" 
	d="
M190.783600,139.740158 
	C190.941696,140.019257 191.170639,140.215881 191.585312,140.529449 
	C189.076096,141.456360 186.398697,142.035248 183.842697,142.952423 
	C181.190460,143.904099 179.116226,143.919510 178.034729,140.473663 
	C179.434036,140.037201 180.873718,139.942291 182.522095,139.833633 
	C182.679123,138.132080 182.813065,136.680801 183.225510,134.979553 
	C184.514191,135.633530 185.524338,136.537445 186.714996,137.267334 
	C186.783981,137.217834 186.672470,137.342361 186.617859,137.727768 
	C187.750214,138.484680 188.825668,138.980713 190.099335,139.617645 
	C190.297546,139.758545 190.783600,139.740158 190.783600,139.740158 
z"/>
<path fill="#F7FCF9" opacity="1.000000" stroke="none" 
	d="
M214.960022,139.737823 
	C214.561584,136.411301 214.535461,133.150665 214.641922,129.452972 
	C216.771515,129.451599 218.768524,129.887299 222.154816,130.626099 
	C219.482788,134.220505 217.407547,137.012100 214.960022,139.737823 
z"/>
<path fill="#F7FCF9" opacity="1.000000" stroke="none" 
	d="
M164.134583,140.054337 
	C167.175079,139.867966 170.224945,140.069641 173.644318,140.330353 
	C170.748337,144.968323 167.445694,142.621750 164.134583,140.054337 
z"/>
<path fill="#F7FCF9" opacity="1.000000" stroke="none" 
	d="
M194.032806,141.073792 
	C195.762589,140.528076 197.510223,140.348724 199.635620,140.242004 
	C199.255280,141.855774 198.497162,143.396912 197.280792,145.869583 
	C195.820648,143.867325 194.935654,142.653732 194.032806,141.073792 
z"/>
<path fill="#F7FCF9" opacity="1.000000" stroke="none" 
	d="
M205.747238,125.120949 
	C205.205231,124.621506 204.663223,124.122063 204.046707,123.353333 
	C205.074753,122.392242 206.177292,121.700432 207.776672,121.229942 
	C208.473801,121.729660 208.739990,121.911758 209.072083,121.997566 
	C209.117493,122.752632 209.162903,123.507706 208.721375,124.645203 
	C207.405380,125.058739 206.576309,125.089844 205.747238,125.120949 
z"/>
<path fill="#32999A" opacity="1.000000" stroke="none" 
	d="
M111.057587,87.442001 
	C111.841171,86.840530 112.575279,86.434875 113.634827,86.294662 
	C113.933510,87.013794 113.906761,87.467491 113.662598,87.938255 
	C113.445183,87.955322 113.013969,88.020851 112.747269,88.135498 
	C111.966881,88.811577 111.453201,89.373001 110.682312,90.174652 
	C109.455894,91.121750 108.486687,91.828621 107.517471,92.535492 
	C107.711685,91.992218 107.905899,91.448952 108.174164,90.624786 
	C108.248222,90.343887 108.224861,90.290161 108.465591,90.181625 
	C108.866325,89.752319 109.026321,89.431564 109.186325,89.110809 
	C109.186333,89.110809 109.089287,89.083557 109.378860,89.054596 
	C109.911316,88.729683 110.154190,88.433723 110.397064,88.137772 
	C110.674911,88.061752 110.878593,87.895096 111.057587,87.442001 
z"/>
<path fill="#EDFAF9" opacity="1.000000" stroke="none" 
	d="
M24.747223,84.036957 
	C24.831488,82.896049 25.151777,82.014175 25.472065,81.132294 
	C26.196255,81.678757 26.920446,82.225227 27.644638,82.771690 
	C26.757507,83.279785 25.870377,83.787880 24.747223,84.036957 
z"/>
<path fill="#EDFAF9" opacity="1.000000" stroke="none" 
	d="
M103.796707,86.783241 
	C102.302917,84.628952 102.302917,84.628952 106.197540,83.169449 
	C105.261154,84.781441 104.696609,85.753319 103.796707,86.783241 
z"/>
<path fill="#BFEEE3" opacity="1.000000" stroke="none" 
	d="
M129.057159,139.458038 
	C131.387878,139.417419 133.815491,139.737915 136.625458,140.208466 
	C134.389893,140.178726 131.771988,139.998932 129.057159,139.458038 
z"/>
<path fill="#BFEEE3" opacity="1.000000" stroke="none" 
	d="
M141.024155,140.748810 
	C142.666687,140.304550 144.440887,140.178024 146.647400,140.166412 
	C145.105087,140.543076 143.130463,140.804794 141.024155,140.748810 
z"/>
<path fill="#EDFAF9" opacity="1.000000" stroke="none" 
	d="
M19.034443,126.867508 
	C19.469236,125.874260 19.917307,125.225662 20.365372,124.577065 
	C20.696041,125.693336 21.026714,126.809616 21.357386,127.925888 
	C20.587496,127.687981 19.817606,127.450073 19.034443,126.867508 
z"/>
<path fill="#EDFAF9" opacity="1.000000" stroke="none" 
	d="
M27.754408,92.053230 
	C27.328489,93.636101 26.497541,95.206017 25.368744,96.928215 
	C25.830389,95.400421 26.589882,93.720352 27.754408,92.053230 
z"/>
<path fill="#D4F3E4" opacity="1.000000" stroke="none" 
	d="
M198.902191,120.674255 
	C196.642227,120.916237 194.263580,120.955330 191.440048,120.958458 
	C193.056244,120.605621 195.117310,120.288757 197.595428,119.958633 
	C198.313660,120.055962 198.570679,120.231293 198.902191,120.674255 
z"/>
<path fill="#F7FCF9" opacity="1.000000" stroke="none" 
	d="
M215.116455,118.953758 
	C214.667877,118.236115 214.581848,117.484772 214.631195,116.372391 
	C215.448120,116.465622 216.129654,116.919899 216.811203,117.374176 
	C216.367142,117.889473 215.923080,118.404770 215.116455,118.953758 
z"/>
<path fill="#BFEEE3" opacity="1.000000" stroke="none" 
	d="
M148.986420,139.827942 
	C148.686066,139.050644 148.712463,138.352005 148.865128,137.325745 
	C149.320068,137.760361 149.648758,138.522629 149.980774,139.616516 
	C149.760483,139.934311 149.536850,139.920456 148.986420,139.827942 
z"/>
<path fill="#D4F3E4" opacity="1.000000" stroke="none" 
	d="
M209.185852,121.632217 
	C208.739990,121.911758 208.473801,121.729660 208.161743,121.233154 
	C208.048431,120.582855 208.046875,120.150673 208.048904,119.395935 
	C208.221680,119.059265 208.390869,119.045151 208.814514,119.020409 
	C209.145859,119.762138 209.222733,120.514511 209.185852,121.632217 
z"/>
<path fill="#F7FCF9" opacity="1.000000" stroke="none" 
	d="
M176.055023,139.892456 
	C176.089783,139.709457 176.548508,139.560867 177.167587,139.642029 
	C177.044952,139.890137 176.761963,139.908508 176.055023,139.892456 
z"/>
<path fill="#BFEEE3" opacity="1.000000" stroke="none" 
	d="
M125.212868,138.164429 
	C125.403267,137.962280 125.760773,138.020706 126.331100,138.254883 
	C126.155945,138.428772 125.767952,138.426895 125.212868,138.164429 
z"/>
<path fill="#EDFAF9" opacity="1.000000" stroke="none" 
	d="
M108.916626,89.191139 
	C109.026321,89.431564 108.866325,89.752319 108.445480,90.160324 
	C108.338737,89.922203 108.492836,89.596832 108.916626,89.191139 
z"/>
<path fill="#D4F3E4" opacity="1.000000" stroke="none" 
	d="
M201.842682,121.756508 
	C201.627228,121.925430 201.248169,121.837898 200.700897,121.500450 
	C200.914841,121.333710 201.296951,121.416878 201.842682,121.756508 
z"/>
<path fill="#EDFAF9" opacity="1.000000" stroke="none" 
	d="
M110.095993,88.187012 
	C110.154190,88.433723 109.911316,88.729683 109.384254,89.104713 
	C109.331688,88.867935 109.563301,88.552086 110.095993,88.187012 
z"/>
<path fill="#04998A" opacity="1.000000" stroke="none" 
	d="
M107.505295,92.553925 
	C108.486687,91.828621 109.455894,91.121750 110.878464,90.419731 
	C111.892540,89.623337 112.453247,88.822090 113.013962,88.020844 
	C113.013969,88.020851 113.445183,87.955322 114.029846,87.934341 
	C116.608681,87.844696 118.602844,87.776031 120.597008,87.707359 
	C119.866104,89.595818 119.018547,91.448654 118.428825,93.380219 
	C117.238335,97.279572 116.187943,101.221695 115.079758,105.146187 
	C115.129646,107.759117 115.179527,110.372040 115.070160,113.534378 
	C115.282509,114.390564 115.654099,114.697350 116.025696,115.004135 
	C116.025696,115.004128 116.183189,115.331902 116.133926,115.856674 
	C116.466286,116.892548 116.847900,117.403664 117.229523,117.914772 
	C117.229523,117.914772 117.122620,117.929741 117.079491,118.173294 
	C117.024971,118.616562 117.013573,118.816284 116.885239,119.323273 
	C116.759087,120.264389 116.911598,120.955795 116.710373,121.521324 
	C116.104401,123.224335 115.360703,124.878357 114.670731,126.551483 
	C113.081749,125.845726 111.145195,125.492889 109.985733,124.350998 
	C108.272346,122.663589 107.226830,120.318024 105.657318,118.454521 
	C105.042953,117.725090 103.780571,117.541451 102.813316,117.109238 
	C101.523285,119.048805 100.233261,120.988373 98.539993,122.640404 
	C98.259056,121.564003 98.338402,120.765610 98.510979,119.987900 
	C99.323654,116.325691 100.161888,112.669144 100.993958,108.757378 
	C100.997032,108.335449 100.997139,108.166718 101.328499,107.840614 
	C105.281212,104.842339 104.564514,100.707695 104.881157,96.881226 
	C104.881157,96.881226 104.967087,97.011284 105.278076,96.936722 
	C106.215576,95.444557 106.842079,94.026947 107.468582,92.609337 
	C107.468582,92.609337 107.493126,92.572365 107.505295,92.553925 
z"/>
<path fill="#12955C" opacity="1.000000" stroke="none" 
	d="
M164.081955,83.743042 
	C165.778992,84.533524 167.476028,85.324013 169.492691,86.270706 
	C169.824020,86.721985 169.961975,86.935501 170.549377,87.365883 
	C171.210510,87.853455 171.548416,88.042633 171.886322,88.231812 
	C171.886322,88.231812 171.900284,88.099991 171.922424,88.381638 
	C172.266830,88.834732 172.589096,89.006172 172.911362,89.177612 
	C172.911362,89.177620 172.933868,89.066307 172.946899,89.375931 
	C173.259583,89.961990 173.559250,90.238419 173.858917,90.514854 
	C173.813782,90.771553 173.904861,90.963730 174.399994,91.413483 
	C175.089569,92.189941 175.511307,92.644295 175.933044,93.098648 
	C175.933044,93.098640 175.978470,93.029442 175.979370,93.339127 
	C176.273209,93.927666 176.566132,94.206512 176.859055,94.485359 
	C177.718781,96.478195 178.578491,98.471039 179.619324,101.068085 
	C180.127914,102.515144 180.455399,103.357994 180.782883,104.200844 
	C180.782883,104.200844 180.725906,104.131248 180.727661,104.608627 
	C180.154846,109.385155 179.580292,113.684303 179.005737,117.983452 
	C174.299698,117.983452 169.593674,117.983452 165.524002,117.983452 
	C165.919250,113.038170 167.364777,108.660706 166.268448,105.056381 
	C165.014191,100.932838 161.500916,97.496429 159.219543,93.435852 
	C165.009796,93.499596 165.298538,99.372803 167.838028,101.618126 
	C169.727158,99.122284 171.452240,96.843170 173.596664,94.010048 
	C170.734406,90.921471 167.408173,87.332260 164.081955,83.743042 
z"/>
<path fill="#0B9778" opacity="1.000000" stroke="none" 
	d="
M120.822014,81.762047 
	C122.291191,81.089752 123.760361,80.417458 125.679428,79.943726 
	C126.309067,79.939072 126.488823,79.735840 126.668579,79.532608 
	C126.668587,79.532616 126.796104,79.579445 127.226044,79.738861 
	C129.618652,79.703438 131.577255,79.424156 133.544739,79.329895 
	C139.009628,79.068054 144.959427,77.106873 149.163986,84.153023 
	C147.342911,85.157829 145.593658,86.123009 143.844421,87.088181 
	C136.960022,87.123901 130.703613,89.246681 124.290924,92.783554 
	C123.695473,92.182060 123.425972,91.362358 123.714165,91.037704 
	C128.287735,85.885529 127.566566,83.511429 120.822014,81.762047 
z"/>
<path fill="#0C9269" opacity="1.000000" stroke="none" 
	d="
M144.025513,87.418106 
	C145.593658,86.123009 147.342911,85.157829 149.163986,84.153023 
	C144.959427,77.106873 139.009628,79.068054 133.544739,79.329895 
	C131.577255,79.424156 129.618652,79.703438 127.199944,79.801575 
	C127.592400,79.243607 128.436813,78.389984 129.290024,78.381073 
	C139.101318,78.278641 149.051422,76.108650 158.827576,80.889771 
	C159.045441,84.537926 159.045441,87.453148 159.045441,90.641983 
	C158.343781,90.828285 157.252762,91.117989 156.161728,91.407684 
	C152.176682,90.187790 148.191635,88.967911 144.025513,87.418106 
z"/>
<path fill="#0B9461" opacity="1.000000" stroke="none" 
	d="
M156.294708,91.700996 
	C157.252762,91.117989 158.343781,90.828285 159.045441,90.641983 
	C159.045441,87.453148 159.045441,84.537926 159.076599,81.160782 
	C160.648117,81.527237 162.188507,82.355606 163.905426,83.463509 
	C167.408173,87.332260 170.734406,90.921471 173.596664,94.010048 
	C171.452240,96.843170 169.727158,99.122284 167.838028,101.618126 
	C165.298538,99.372803 165.009796,93.499596 159.076355,93.124054 
	C157.931091,92.756668 157.179382,92.375488 156.294708,91.700996 
z"/>
<path fill="#0B9884" opacity="1.000000" stroke="none" 
	d="
M102.924759,117.444397 
	C103.780571,117.541451 105.042953,117.725090 105.657318,118.454521 
	C107.226830,120.318024 108.272346,122.663589 109.985733,124.350998 
	C111.145195,125.492889 113.081749,125.845726 114.670731,126.551483 
	C115.360703,124.878357 116.104401,123.224335 116.710373,121.521324 
	C116.911598,120.955795 116.759087,120.264389 117.172958,119.301186 
	C117.767792,118.942757 117.957977,118.913689 118.148155,118.884621 
	C118.148155,118.884621 118.023804,118.950363 118.065552,119.241890 
	C118.541672,119.984299 118.976028,120.435188 119.410393,120.886070 
	C119.410393,120.886070 119.717323,120.777695 119.953079,121.094795 
	C120.379349,121.696754 120.637573,121.892082 120.963524,121.997871 
	C120.963524,121.997871 121.152443,122.327530 121.141724,122.517212 
	C122.535034,127.815933 125.874420,131.032944 131.322403,132.188553 
	C131.085754,132.666351 130.849091,133.144135 130.612427,133.621933 
	C128.391129,132.967300 126.169823,132.312668 123.626106,131.563019 
	C122.738487,136.933273 119.253174,131.031906 117.036858,132.989288 
	C110.154449,129.975784 106.201584,124.228714 102.924759,117.444397 
z"/>
<path fill="#158A56" opacity="1.000000" stroke="none" 
	d="
M189.995987,135.092636 
	C190.014008,135.507721 190.032013,135.922821 190.014236,136.683868 
	C189.978439,137.029846 189.895844,137.104950 189.475494,137.084534 
	C188.223740,137.198380 187.392349,137.332626 186.560959,137.466873 
	C186.672470,137.342361 186.783981,137.217834 186.830658,136.926697 
	C186.425858,134.453903 185.640915,132.811813 182.862549,134.144623 
	C181.263657,135.135239 179.664764,136.125854 177.631073,137.385864 
	C177.631073,134.238052 177.631073,131.903976 177.372650,129.299393 
	C177.064011,128.570312 177.013794,128.111755 177.293732,127.057755 
	C177.749985,125.008987 177.876038,123.555664 178.002090,122.102333 
	C178.176224,122.048454 178.350342,121.994576 178.763977,121.952492 
	C179.003494,121.964279 178.965927,122.129120 179.116302,122.388367 
	C180.158173,123.429321 181.049683,124.211037 182.084259,125.245308 
	C183.740005,124.967232 185.252686,124.436607 186.765350,123.905975 
	C188.383026,123.358574 189.976822,122.693283 191.637238,122.356857 
	C191.997009,122.283966 192.596130,123.392387 192.733246,124.437820 
	C191.193283,125.673782 189.983719,126.401100 188.876343,127.260155 
	C188.817444,127.305855 189.621185,128.463531 190.064758,129.427399 
	C191.074524,130.761765 192.042862,131.772308 192.635818,132.847351 
	C188.729980,133.080765 188.729980,133.080765 189.995987,135.092636 
z"/>
<path fill="#109784" opacity="1.000000" stroke="none" 
	d="
M120.842484,81.773849 
	C127.566566,83.511429 128.287735,85.885529 123.714165,91.037704 
	C123.425972,91.362358 123.695473,92.182060 123.986893,92.961319 
	C121.420311,97.047859 118.572342,100.944534 115.402061,104.993698 
	C116.187943,101.221695 117.238335,97.279572 118.428825,93.380219 
	C119.018547,91.448654 119.866104,89.595818 120.597008,87.707359 
	C118.602844,87.776031 116.608681,87.844696 114.247269,87.917282 
	C113.906761,87.467491 113.933510,87.013794 113.948639,86.218674 
	C115.361633,84.874809 116.786240,83.872360 118.708679,83.071480 
	C119.752220,82.772461 120.297928,82.271873 120.843643,81.771294 
	C120.843643,81.771294 120.862961,81.785645 120.842484,81.773849 
z"/>
<path fill="#EDFAF9" opacity="1.000000" stroke="none" 
	d="
M186.812714,123.680130 
	C185.252686,124.436607 183.740005,124.967232 182.137100,124.851234 
	C181.019882,123.512779 179.992905,122.820946 178.965927,122.129120 
	C178.965927,122.129120 179.003494,121.964279 179.028519,121.883537 
	C179.036621,120.784386 179.019714,119.765984 179.004272,118.365509 
	C179.580292,113.684303 180.154846,109.385155 180.709747,104.649872 
	C185.370468,106.346123 182.866760,110.155411 182.303925,113.036995 
	C181.672043,116.272148 181.546249,119.109451 183.553711,121.727440 
	C184.068878,122.399307 185.234055,122.572762 186.465454,122.984451 
	C186.830276,122.993706 186.860092,123.454277 186.812714,123.680130 
z"/>
<path fill="#1B8755" opacity="1.000000" stroke="none" 
	d="
M177.618744,122.192780 
	C177.876038,123.555664 177.749985,125.008987 177.368988,126.717918 
	C177.154510,125.410088 177.194962,123.846649 177.618744,122.192780 
z"/>
<path fill="#BFEEE3" opacity="1.000000" stroke="none" 
	d="
M146.748474,128.511200 
	C145.926010,128.823883 144.859787,128.936493 143.394836,128.974670 
	C144.165649,128.703842 145.335175,128.507477 146.748474,128.511200 
z"/>
<path fill="#119578" opacity="1.000000" stroke="none" 
	d="
M116.093597,114.737625 
	C115.654099,114.697350 115.282509,114.390564 115.127289,113.966080 
	C115.616272,114.055946 115.888893,114.263527 116.093597,114.737625 
z"/>
<path fill="#119578" opacity="1.000000" stroke="none" 
	d="
M117.211006,117.575111 
	C116.847900,117.403664 116.466286,116.892548 116.098007,116.034904 
	C116.471725,116.204063 116.832108,116.719757 117.211006,117.575111 
z"/>
<path fill="#119578" opacity="1.000000" stroke="none" 
	d="
M119.331131,120.575996 
	C118.976028,120.435188 118.541672,119.984299 118.111725,119.188843 
	C118.494720,119.318146 118.873291,119.792030 119.331131,120.575996 
z"/>
<path fill="#119578" opacity="1.000000" stroke="none" 
	d="
M118.082504,118.629105 
	C117.957977,118.913689 117.767792,118.942757 117.289902,118.993927 
	C117.013573,118.816284 117.024971,118.616562 117.093719,118.121231 
	C117.439667,118.008270 117.728256,118.190926 118.082504,118.629105 
z"/>
<path fill="#119578" opacity="1.000000" stroke="none" 
	d="
M120.978142,121.696381 
	C120.637573,121.892082 120.379349,121.696754 120.087074,121.187180 
	C120.321121,121.106598 120.656944,121.250748 120.978142,121.696381 
z"/>
<path fill="#0F979A" opacity="1.000000" stroke="none" 
	d="
M51.667423,78.832367 
	C58.399837,78.496735 65.255470,77.209251 71.834198,78.060844 
	C80.507713,79.183586 88.751152,82.430656 95.491951,89.076035 
	C97.282944,91.481918 98.753838,93.776756 100.820213,97.000641 
	C94.751747,97.000641 89.710953,97.058418 84.673973,96.945702 
	C83.799858,96.926140 82.714600,96.396561 82.111313,95.746025 
	C75.506271,88.623657 67.084404,87.434052 57.531532,88.115784 
	C57.030674,88.035431 56.934689,87.924774 57.049339,87.540688 
	C62.100163,87.265892 67.036400,87.447716 71.972466,87.443085 
	C73.586609,87.441574 75.200294,86.955070 76.814194,86.690361 
	C76.293488,85.048111 76.062019,83.215935 75.151642,81.829582 
	C74.532173,80.886230 73.002075,80.156479 71.810173,80.040520 
	C66.875809,79.560448 61.915165,79.350449 56.595955,79.040665 
	C55.491634,79.052216 54.755531,79.064354 53.626625,79.044235 
	C52.711685,78.952118 52.189556,78.892242 51.667423,78.832367 
z"/>
<path fill="#129AB5" opacity="1.000000" stroke="none" 
	d="
M47.683167,137.266479 
	C42.495739,134.823288 37.806931,132.281555 33.405037,129.379379 
	C35.177708,129.566849 36.698719,130.035782 38.141579,130.679810 
	C40.798832,131.865860 43.410152,133.154831 46.040615,134.400909 
	C46.292797,133.986923 46.544975,133.572937 46.797157,133.158951 
	C44.488052,129.028488 42.408897,124.747185 39.819744,120.800453 
	C35.106621,113.616112 34.608089,106.439636 39.278114,99.005096 
	C39.824303,99.053574 40.042294,99.078201 40.260288,99.102821 
	C35.775333,109.819763 39.363583,118.339767 47.885132,126.057312 
	C48.616978,126.592072 48.942177,126.697456 49.267376,126.802849 
	C49.267376,126.802849 49.138500,126.869118 49.247688,127.106697 
	C49.744167,127.526306 50.131466,127.708344 50.518761,127.890381 
	C51.809017,128.168472 53.099274,128.446548 54.869987,129.121735 
	C55.903187,129.679016 56.455929,129.839203 57.252945,130.003220 
	C57.497215,130.007050 57.985767,130.014297 58.032928,130.375992 
	C59.149521,131.513321 60.382729,132.140564 61.250771,133.098679 
	C62.621960,134.612091 63.748180,136.347458 64.978073,137.988892 
	C59.379311,137.715256 53.780548,137.441605 47.683167,137.266479 
z"/>
<path fill="#069A96" opacity="1.000000" stroke="none" 
	d="
M100.990997,109.010582 
	C100.161888,112.669144 99.323654,116.325691 98.510979,119.987900 
	C98.338402,120.765610 98.259056,121.564003 98.226440,122.761925 
	C98.316124,123.170982 98.261826,123.157066 97.946182,123.268997 
	C97.440765,124.269569 97.250992,125.158195 97.061211,126.046829 
	C97.061211,126.046829 97.087860,126.080719 97.089737,126.102921 
	C94.459679,125.569710 91.827751,125.014305 88.636887,124.340958 
	C90.093590,121.509109 90.971703,119.802048 91.849823,118.094986 
	C91.616463,117.670425 91.383110,117.245865 91.149757,116.821297 
	C89.372520,117.544731 87.595291,118.268173 85.472809,119.013107 
	C85.139633,118.479187 85.151703,117.923767 85.077301,116.710098 
	C84.655144,115.703255 84.319450,115.354675 84.027084,114.648743 
	C84.714432,112.526779 85.358437,110.762177 86.468391,108.996880 
	C91.619896,109.000984 96.305443,109.005783 100.990997,109.010582 
z"/>
<path fill="#32999A" opacity="1.000000" stroke="none" 
	d="
M83.983757,115.006088 
	C84.319450,115.354675 84.655144,115.703255 85.025513,116.296448 
	C77.592476,116.617599 70.115616,116.498955 62.660664,116.848114 
	C58.569378,117.039734 56.715935,115.851112 57.411850,111.589577 
	C57.645908,110.156281 57.598999,108.677094 57.719791,106.516060 
	C69.622292,106.516060 81.377106,106.287422 93.116295,106.616333 
	C98.656158,106.771553 102.984077,106.362282 103.196686,99.452629 
	C103.219780,98.702316 103.880470,97.971634 104.563293,97.056534 
	C104.564514,100.707695 105.281212,104.842339 100.860184,107.834602 
	C88.752876,107.984001 77.444839,107.942139 66.137672,108.022118 
	C64.397545,108.034424 62.661373,108.607170 60.563091,109.009613 
	C58.392269,113.197678 59.314396,114.944412 63.569477,115.002945 
	C70.372963,115.096550 77.178871,115.014107 83.983757,115.006088 
z"/>
<path fill="#089BA9" opacity="1.000000" stroke="none" 
	d="
M65.423813,137.994980 
	C63.748180,136.347458 62.621960,134.612091 61.250771,133.098679 
	C60.382729,132.140564 59.149521,131.513321 58.306641,130.361603 
	C59.005554,129.753311 59.477917,129.521118 59.950279,129.288940 
	C60.410686,129.278580 60.871090,129.268219 61.674217,129.706345 
	C62.622265,130.709259 63.227596,131.263672 63.832924,131.818100 
	C64.227951,131.037628 64.622978,130.257156 65.018005,129.476669 
	C65.468353,129.371582 65.918716,129.266479 66.715820,129.215088 
	C69.138954,129.513153 71.322006,129.436493 73.265053,130.082153 
	C75.760147,130.911224 78.062431,132.320557 80.447777,133.479904 
	C80.295006,134.288589 80.142235,135.097290 79.989464,135.905975 
	C75.282822,136.604340 70.576180,137.302704 65.423813,137.994980 
z"/>
<path fill="#0B98AC" opacity="1.000000" stroke="none" 
	d="
M40.538185,98.922630 
	C40.042294,99.078201 39.824303,99.053574 39.322594,98.665604 
	C40.032799,96.535446 41.026722,94.768639 42.236664,92.894348 
	C42.720558,92.586533 42.903046,92.326317 43.244438,91.997726 
	C43.488731,91.989258 43.977188,91.969154 44.290878,91.826912 
	C47.401917,90.456139 50.199261,89.227608 53.015068,88.305038 
	C53.056194,88.814087 53.078861,89.017166 53.101524,89.220253 
	C48.014221,91.114250 43.606602,93.885162 40.538185,98.922630 
z"/>
<path fill="#139A9F" opacity="1.000000" stroke="none" 
	d="
M64.641281,129.398499 
	C64.622978,130.257156 64.227951,131.037628 63.832924,131.818100 
	C63.227596,131.263672 62.622265,130.709259 61.998665,129.831528 
	C62.741779,129.445602 63.503166,129.382965 64.641281,129.398499 
z"/>
<path fill="#32999A" opacity="1.000000" stroke="none" 
	d="
M107.171555,92.737053 
	C106.842079,94.026947 106.215576,95.444557 105.225548,96.878784 
	C105.532860,95.551849 106.203690,94.208313 107.171555,92.737053 
z"/>
<path fill="#0F979A" opacity="1.000000" stroke="none" 
	d="
M53.463345,89.216614 
	C53.078861,89.017166 53.056194,88.814087 53.256432,88.289871 
	C53.479336,87.968735 53.962387,87.945610 54.334229,87.963295 
	C55.448944,87.962242 56.191814,87.943504 56.934689,87.924774 
	C56.934689,87.924774 57.030674,88.035431 57.078457,88.091240 
	C56.025883,88.502357 54.925522,88.857666 53.463345,89.216614 
z"/>
<path fill="#139A9F" opacity="1.000000" stroke="none" 
	d="
M59.593163,129.177078 
	C59.477917,129.521118 59.005554,129.753311 58.259480,129.999908 
	C57.985767,130.014297 57.497215,130.007050 57.248802,129.770828 
	C57.000385,129.534607 56.999771,129.069733 56.999771,129.069733 
	C57.745197,129.068237 58.490620,129.066727 59.593163,129.177078 
z"/>
<path fill="#089BA9" opacity="1.000000" stroke="none" 
	d="
M56.676506,128.954346 
	C56.999771,129.069733 57.000385,129.534607 57.004528,129.766998 
	C56.455929,129.839203 55.903187,129.679016 55.181190,129.278778 
	C55.459038,128.972137 55.906139,128.905563 56.676506,128.954346 
z"/>
<path fill="#089BA9" opacity="1.000000" stroke="none" 
	d="
M50.380219,127.594986 
	C50.131466,127.708344 49.744167,127.526306 49.242035,127.034454 
	C49.498695,126.916290 49.870190,127.107948 50.380219,127.594986 
z"/>
<path fill="#089BA9" opacity="1.000000" stroke="none" 
	d="
M49.159264,126.547592 
	C48.942177,126.697456 48.616978,126.592072 48.152657,126.263939 
	C48.359409,126.124916 48.705276,126.208626 49.159264,126.547592 
z"/>
<path fill="#078B4D" opacity="1.000000" stroke="none" 
	d="
M163.215637,132.260010 
	C162.793350,129.384155 162.492599,126.864655 162.191864,124.345161 
	C162.851395,124.288475 163.510941,124.231789 164.170471,124.175095 
	C164.170471,127.430328 164.170471,130.685562 164.170471,133.982239 
	C163.968307,133.650848 163.652756,133.133606 163.215637,132.260010 
z"/>
<path fill="#2A875D" opacity="1.000000" stroke="none" 
	d="
M182.872009,134.186676 
	C185.640915,132.811813 186.425858,134.453903 186.650162,137.100739 
	C185.524338,136.537445 184.514191,135.633530 183.199478,134.521698 
	C182.894928,134.313797 182.881485,134.228699 182.872009,134.186676 
z"/>
<path fill="#EDFAF9" opacity="1.000000" stroke="none" 
	d="
M180.854874,103.836647 
	C180.455399,103.357994 180.127914,102.515144 179.833023,101.324547 
	C180.219360,101.808685 180.573120,102.640564 180.854874,103.836647 
z"/>
<path fill="#EDFAF9" opacity="1.000000" stroke="none" 
	d="
M175.918335,92.749184 
	C175.511307,92.644295 175.089569,92.189941 174.567947,91.433388 
	C174.946579,91.554024 175.425110,91.976868 175.918335,92.749184 
z"/>
<path fill="#EDFAF9" opacity="1.000000" stroke="none" 
	d="
M173.811218,90.197044 
	C173.559250,90.238419 173.259583,89.961990 172.890198,89.379326 
	C173.134827,89.341805 173.449158,89.610519 173.811218,90.197044 
z"/>
<path fill="#EDFAF9" opacity="1.000000" stroke="none" 
	d="
M176.816727,94.176361 
	C176.566132,94.206512 176.273209,93.927666 175.938187,93.343163 
	C176.188858,93.314117 176.481628,93.590736 176.816727,94.176361 
z"/>
<path fill="#EDFAF9" opacity="1.000000" stroke="none" 
	d="
M172.821884,88.910721 
	C172.589096,89.006172 172.266830,88.834732 171.857895,88.396751 
	C172.091614,88.301422 172.412018,88.472633 172.821884,88.910721 
z"/>
<path fill="#EDFAF9" opacity="1.000000" stroke="none" 
	d="
M171.785461,87.941986 
	C171.548416,88.042633 171.210510,87.853455 170.746460,87.393021 
	C170.975082,87.298569 171.329834,87.475365 171.785461,87.941986 
z"/>
<path fill="#04998A" opacity="1.000000" stroke="none" 
	d="
M97.351959,125.871834 
	C97.250992,125.158195 97.440765,124.269569 97.957596,123.243752 
	C98.070671,123.969994 97.856682,124.833412 97.351959,125.871834 
z"/>
<path fill="#029ECA" opacity="1.000000" stroke="none" 
	d="
M42.020645,93.001831 
	C41.026722,94.768639 40.032799,96.535446 38.994392,98.641754 
	C34.608089,106.439636 35.106621,113.616112 39.819744,120.800453 
	C42.408897,124.747185 44.488052,129.028488 46.797157,133.158951 
	C46.544975,133.572937 46.292797,133.986923 46.040615,134.400909 
	C43.410152,133.154831 40.798832,131.865860 38.141579,130.679810 
	C36.698719,130.035782 35.177708,129.566849 33.298698,129.050308 
	C32.905449,129.081680 32.935066,129.050797 32.957497,128.694702 
	C30.651644,124.219490 28.323362,120.100349 25.995081,115.981216 
	C25.664930,113.383820 25.139776,110.791130 25.077045,108.187286 
	C25.038816,106.600403 25.272099,103.926605 26.137184,103.570099 
	C32.763096,100.839600 30.089359,93.902184 32.868416,89.130829 
	C32.890396,88.401123 33.045235,88.152901 33.949112,87.967987 
	C35.381618,87.964684 36.191772,87.977089 36.851349,88.339851 
	C34.497688,95.033653 39.619137,92.339752 42.020645,93.001831 
z"/>
<path fill="#0B98AC" opacity="1.000000" stroke="none" 
	d="
M37.001930,87.989502 
	C36.191772,87.977089 35.381618,87.964684 34.168842,87.913559 
	C36.208961,85.871964 38.419239,83.428085 41.157017,81.984894 
	C44.152649,80.405769 47.635750,79.751396 51.286911,78.763184 
	C52.189556,78.892242 52.711685,78.952118 53.402039,79.312729 
	C51.303421,80.419312 48.906071,80.977501 46.799583,82.087608 
	C43.432171,83.862244 40.257874,86.003334 37.001930,87.989502 
z"/>
<path fill="#129AB5" opacity="1.000000" stroke="none" 
	d="
M25.651146,116.012489 
	C28.323362,120.100349 30.651644,124.219490 32.959667,128.713547 
	C30.180405,125.020027 27.421398,120.951576 24.641476,116.500824 
	C24.849443,116.093597 25.078325,116.068680 25.651146,116.012489 
z"/>
<path fill="#0B9778" opacity="1.000000" stroke="none" 
	d="
M120.559410,81.809410 
	C120.297928,82.271873 119.752220,82.772461 119.035492,83.003738 
	C119.334702,82.438797 119.804939,82.143166 120.559410,81.809410 
z"/>
<path fill="#0C9269" opacity="1.000000" stroke="none" 
	d="
M126.465775,79.504295 
	C126.488823,79.735840 126.309067,79.939072 126.035782,79.936508 
	C125.942245,79.730713 126.262962,79.475983 126.465775,79.504295 
z"/>
<path fill="#D4F3E4" opacity="1.000000" stroke="none" 
	d="
M205.836182,125.507622 
	C206.576309,125.089844 207.405380,125.058739 208.649323,125.018105 
	C209.132385,127.051231 209.200592,129.093887 209.165771,131.564240 
	C208.305725,132.017029 207.548691,132.042145 206.414337,132.036484 
	C206.105392,131.560562 206.173798,131.115433 206.192078,130.085770 
	C206.089218,129.335373 206.036484,129.169495 205.983734,129.003601 
	C205.964188,127.967163 205.944656,126.930733 205.836182,125.507622 
z"/>
<path fill="#D4F3E4" opacity="1.000000" stroke="none" 
	d="
M209.171021,136.636597 
	C208.899429,136.125290 208.722229,135.241547 208.802643,134.173889 
	C209.128632,134.748032 209.197006,135.506104 209.171021,136.636597 
z"/>
<path fill="#CCF1E1" opacity="1.000000" stroke="none" 
	d="
M190.023331,129.103561 
	C189.621185,128.463531 188.817444,127.305855 188.876343,127.260155 
	C189.983719,126.401100 191.193283,125.673782 192.686264,124.729935 
	C196.109818,124.819283 199.662994,124.129944 200.546082,128.550766 
	C196.675858,128.984390 193.349594,129.043976 190.023331,129.103561 
z"/>
<path fill="#0A7E45" opacity="1.000000" stroke="none" 
	d="
M190.064758,129.427399 
	C193.349594,129.043976 196.675858,128.984390 200.454376,128.931198 
	C201.621719,129.762085 202.336823,130.586563 203.063507,131.786270 
	C203.075119,132.161484 203.026306,132.583542 202.997833,132.794037 
	C202.472183,133.012161 201.975006,133.019806 200.686340,133.030609 
	C197.600296,132.950119 195.305756,132.866470 193.011200,132.782837 
	C192.042862,131.772308 191.074524,130.761765 190.064758,129.427399 
z"/>
<path fill="#0A7E45" opacity="1.000000" stroke="none" 
	d="
M205.814117,129.098633 
	C206.036484,129.169495 206.089218,129.335373 206.093338,129.757782 
	C205.911316,129.740768 205.777924,129.467209 205.814117,129.098633 
z"/>
<path fill="#D4F3E4" opacity="1.000000" stroke="none" 
	d="
M204.168152,137.911621 
	C204.114426,137.700638 204.305145,137.429810 204.752213,137.114960 
	C204.809921,137.331192 204.611267,137.591476 204.168152,137.911621 
z"/>
<path fill="#DDF4E5" opacity="1.000000" stroke="none" 
	d="
M192.635818,132.847351 
	C195.305756,132.866470 197.600296,132.950119 200.317719,133.088684 
	C198.245987,137.255829 195.930344,137.728119 190.354889,135.140656 
	C188.729980,133.080765 188.729980,133.080765 192.635818,132.847351 
z"/>
<path fill="#158A56" opacity="1.000000" stroke="none" 
	d="
M190.833038,139.358795 
	C190.783600,139.740158 190.297546,139.758545 190.124786,139.220871 
	C189.933289,138.157120 189.914566,137.631027 189.895844,137.104950 
	C189.895844,137.104950 189.978439,137.029846 190.022919,136.995361 
	C190.339096,137.633072 190.610779,138.305237 190.833038,139.358795 
z"/>
<path fill="#2A875D" opacity="1.000000" stroke="none" 
	d="
M189.475494,137.084534 
	C189.914566,137.631027 189.933289,138.157120 189.926575,139.079956 
	C188.825668,138.980713 187.750214,138.484680 186.617859,137.727768 
	C187.392349,137.332626 188.223740,137.198380 189.475494,137.084534 
z"/>
<path fill="#109784" opacity="1.000000" stroke="none" 
	d="
M112.747261,88.135498 
	C112.453247,88.822090 111.892540,89.623337 111.135674,90.179504 
	C111.453201,89.373001 111.966881,88.811577 112.747261,88.135498 
z"/>
<path fill="#029090" opacity="1.000000" stroke="none" 
	d="
M60.923374,108.920723 
	C62.661373,108.607170 64.397545,108.034424 66.137672,108.022118 
	C77.444839,107.942139 88.752876,107.984001 100.528938,107.991982 
	C100.997139,108.166718 100.997032,108.335449 100.993958,108.757378 
	C96.305443,109.005783 91.619896,109.000984 85.999466,108.997192 
	C77.017509,108.972366 68.970444,108.946548 60.923374,108.920723 
z"/>
<path fill="#1B8755" opacity="1.000000" stroke="none" 
	d="
M179.116302,122.388367 
	C179.992905,122.820946 181.019882,123.512779 181.994019,124.598686 
	C181.049683,124.211037 180.158173,123.429321 179.116302,122.388367 
z"/>
<path fill="#039EBF" opacity="1.000000" stroke="none" 
	d="
M36.851349,88.339859 
	C40.257874,86.003334 43.432171,83.862244 46.799583,82.087608 
	C48.906071,80.977501 51.303421,80.419312 53.794846,79.344978 
	C54.755531,79.064354 55.491634,79.052216 56.608841,79.406509 
	C57.481453,81.101074 57.972954,82.429199 58.182678,82.995911 
	C56.812622,84.602760 55.387505,86.274185 53.962387,87.945610 
	C53.962387,87.945610 53.479336,87.968735 53.237972,87.983910 
	C50.199261,89.227608 47.401917,90.456139 44.203056,91.664352 
	C43.534405,91.764763 43.267277,91.885483 43.000149,92.006203 
	C42.903046,92.326317 42.720558,92.586533 42.236664,92.894348 
	C39.619137,92.339752 34.497688,95.033653 36.851349,88.339859 
z"/>
<path fill="#0B98AC" opacity="1.000000" stroke="none" 
	d="
M54.334229,87.963295 
	C55.387505,86.274185 56.812622,84.602760 58.182678,82.995911 
	C57.972954,82.429199 57.481453,81.101074 56.977066,79.407104 
	C61.915165,79.350449 66.875809,79.560448 71.810173,80.040520 
	C73.002075,80.156479 74.532173,80.886230 75.151642,81.829582 
	C76.062019,83.215935 76.293488,85.048111 76.814194,86.690361 
	C75.200294,86.955070 73.586609,87.441574 71.972466,87.443085 
	C67.036400,87.447716 62.100163,87.265892 57.049339,87.540688 
	C56.191814,87.943504 55.448944,87.962242 54.334229,87.963295 
z"/>
<path fill="#039CA8" opacity="1.000000" stroke="none" 
	d="
M60.563091,109.009613 
	C68.970444,108.946548 77.017509,108.972366 85.533508,108.997879 
	C85.358437,110.762177 84.714432,112.526779 84.027084,114.648735 
	C77.178871,115.014107 70.372963,115.096550 63.569477,115.002945 
	C59.314396,114.944412 58.392269,113.197678 60.563091,109.009613 
z"/>
<path fill="#029ECA" opacity="1.000000" stroke="none" 
	d="
M43.244438,91.997726 
	C43.267277,91.885483 43.534405,91.764763 43.889362,91.806595 
	C43.977188,91.969154 43.488731,91.989258 43.244438,91.997726 
z"/>
</svg>