<?xml version="1.0" standalone="no"?>
<!DOCTYPE svg PUBLIC "-//W3C//DTD SVG 20010904//EN"
 "http://www.w3.org/TR/2001/REC-SVG-20010904/DTD/svg10.dtd">
<svg version="1.0" xmlns="http://www.w3.org/2000/svg"
 width="225.000000pt" height="224.000000pt" viewBox="0 0 225.000000 224.000000"
 preserveAspectRatio="xMidYMid meet">

<g transform="translate(0.000000,224.000000) scale(0.100000,-0.100000)"
fill="#000000" stroke="none">
<path d="M490 1455 c-25 -7 -63 -22 -86 -33 -51 -26 -147 -120 -140 -138 3 -7
-2 -18 -12 -23 -25 -14 -8 -25 18 -11 13 7 19 17 15 29 -3 9 2 26 10 37 11 15
14 16 15 3 0 -8 -5 -20 -12 -27 -9 -9 -9 -12 0 -12 7 0 12 -6 12 -13 0 -15
-39 -42 -60 -42 -11 0 -16 -14 -18 -57 -2 -39 1 -58 8 -58 8 0 11 17 8 50 -3
49 -2 50 25 50 15 0 30 7 33 15 4 8 11 12 17 8 6 -3 7 -1 3 5 -12 19 -13 98
-2 108 6 5 18 10 26 10 8 1 24 3 35 5 15 3 19 -1 18 -16 -1 -11 0 -14 3 -7 7
15 24 16 24 2 0 -6 -13 -18 -29 -28 -17 -10 -37 -35 -50 -64 -12 -29 -26 -46
-33 -43 -20 7 -39 -9 -42 -36 -6 -44 -18 -79 -28 -79 -5 0 -6 -10 -3 -21 9
-27 73 -113 89 -118 6 -2 18 -9 26 -16 164 -139 510 -90 618 86 12 20 22 44
22 53 0 26 27 19 34 -9 7 -28 24 -51 77 -105 68 -69 199 -115 307 -108 l47 3
3 52 3 52 -58 -1 c-106 -1 -168 21 -221 80 -41 47 -56 93 -48 149 16 120 130
192 286 181 85 -6 150 -37 194 -91 29 -36 31 -44 31 -118 l0 -80 65 3 65 3 0
75 c0 90 -18 131 -84 198 -72 73 -146 104 -263 110 -129 6 -213 -14 -288 -70
-64 -46 -102 -95 -120 -153 -7 -22 -15 -46 -19 -54 -5 -11 -48 -13 -223 -12
l-216 2 1 -45 0 -46 139 0 c128 0 138 -1 138 -19 0 -28 -72 -88 -122 -102 -24
-6 -50 -14 -58 -17 -27 -9 -90 -12 -90 -3 0 5 -19 11 -42 15 -24 4 -53 13 -65
21 -12 8 -28 13 -35 12 -7 -2 -10 -2 -6 0 3 2 -9 27 -28 56 -19 28 -34 65 -35
82 -1 29 -1 29 -8 5 -4 -14 -2 -35 6 -49 9 -20 10 -28 0 -39 -10 -12 -8 -14 9
-8 25 8 32 -5 29 -51 -1 -22 2 -30 12 -26 18 7 17 -2 -3 -21 -14 -15 -18 -15
-47 1 -36 21 -66 52 -67 71 0 6 -4 12 -10 12 -18 0 -29 36 -21 66 8 26 9 27
17 10 4 -12 3 -21 -3 -23 -6 -2 -9 -12 -6 -22 4 -14 14 -19 39 -18 39 1 48 17
32 53 -10 20 -9 32 4 57 9 18 21 51 27 75 7 23 16 42 21 42 6 0 10 5 10 11 0
18 51 58 90 70 19 7 37 15 40 19 9 12 185 -7 216 -23 16 -8 39 -27 49 -41 18
-24 25 -26 103 -26 l82 0 -17 28 c-42 66 -118 117 -218 147 -61 18 -203 18
-265 0z m103 -2 c-18 -2 -33 -9 -33 -14 0 -6 -5 -7 -11 -3 -17 10 11 24 46 22
l30 -1 -32 -4z m74 1 c-3 -3 -12 -4 -19 -1 -8 3 -5 6 6 6 11 1 17 -2 13 -5z
m66 -11 c-7 -2 -21 -2 -30 0 -10 3 -4 5 12 5 17 0 24 -2 18 -5z m-235 -31 c2
-7 13 -12 25 -12 20 0 20 0 1 -19 -16 -16 -21 -17 -30 -5 -13 16 -34 19 -34 4
0 -6 -20 -9 -45 -8 -25 0 -45 4 -45 8 0 3 16 14 35 23 19 9 35 12 35 7 0 -6
-7 -10 -16 -10 -8 0 -13 -4 -9 -10 9 -14 50 5 49 23 -2 17 28 16 34 -1z m95 1
c-7 -2 -19 -2 -25 0 -7 3 -2 5 12 5 14 0 19 -2 13 -5z m70 0 c-7 -2 -19 -2
-25 0 -7 3 -2 5 12 5 14 0 19 -2 13 -5z m-15 -20 c-15 -2 -42 -2 -60 0 -18 2
-6 4 27 4 33 0 48 -2 33 -4z m147 -43 c3 -6 -1 -7 -9 -4 -18 7 -21 14 -7 14 6
0 13 -4 16 -10z m115 6 c0 -3 -4 -8 -10 -11 -5 -3 -10 -1 -10 4 0 6 5 11 10
11 6 0 10 -2 10 -4z m-549 -137 c-5 -13 -10 -19 -10 -12 -1 15 10 45 15 40 3
-2 0 -15 -5 -28z m-36 -38 c3 -11 -1 -34 -9 -53 l-14 -33 -1 53 c-1 52 12 70
24 33z m279 -53 c4 -17 2 -28 -4 -28 -5 0 -10 14 -10 32 0 36 4 35 14 -4z
m159 25 c-24 -2 -62 -2 -85 0 -24 2 -5 4 42 4 47 0 66 -2 43 -4z m-426 -85
c-3 -8 -6 -5 -6 6 -1 11 2 17 5 13 3 -3 4 -12 1 -19z m640 -10 c-3 -8 -6 -5
-6 6 -1 11 2 17 5 13 3 -3 4 -12 1 -19z m-97 -2 c0 -3 -4 -8 -10 -11 -5 -3
-10 -1 -10 4 0 6 5 11 10 11 6 0 10 -2 10 -4z m-22 -48 c-2 -6 -10 -14 -16
-16 -7 -2 -10 2 -6 12 7 18 28 22 22 4z m-390 -37 c11 -7 11 -9 -1 -14 -9 -3
-18 1 -21 9 -6 16 2 18 22 5z m9 -55 c4 -7 15 -16 23 -19 9 -3 3 -6 -12 -6
-16 -1 -28 4 -28 9 0 6 -7 10 -15 10 -8 0 -15 5 -15 10 0 15 38 12 47 -4z
m348 4 c-3 -5 -10 -10 -16 -10 -5 0 -9 5 -9 10 0 6 7 10 16 10 8 0 12 -4 9
-10z m-105 -20 c0 -5 -5 -10 -11 -10 -5 0 -7 5 -4 10 3 6 8 10 11 10 2 0 4 -4
4 -10z m-87 -7 c-7 -2 -19 -2 -25 0 -7 3 -2 5 12 5 14 0 19 -2 13 -5z m60 -20
c-7 -2 -19 -2 -25 0 -7 3 -2 5 12 5 14 0 19 -2 13 -5z"/>
<path d="M331 1264 c0 -11 3 -14 6 -6 3 7 2 16 -1 19 -3 4 -6 -2 -5 -13z"/>
<path d="M1538 1093 c-10 -2 -21 -15 -24 -28 -3 -13 -12 -26 -20 -29 -19 -7
-18 -26 1 -26 12 0 15 -16 15 -80 0 -79 0 -80 25 -80 25 0 25 1 25 80 0 72 2
80 19 80 16 0 19 -10 23 -61 4 -49 9 -66 27 -80 26 -22 91 -25 109 -7 10 10
17 10 32 0 32 -20 40 -14 40 28 0 44 14 54 24 16 13 -51 137 -75 184 -37 35
30 28 44 -14 26 -20 -8 -48 -15 -63 -15 -28 0 -71 25 -71 41 0 5 42 9 95 9 84
0 95 2 95 18 0 45 -63 92 -122 92 -40 0 -94 -31 -103 -59 -11 -34 -25 -24 -25
18 0 35 -2 38 -25 33 -24 -4 -25 -8 -25 -68 0 -60 -2 -65 -26 -74 -35 -14 -41
-13 -64 10 -15 15 -20 33 -20 78 l0 58 -42 0 c-32 -1 -43 3 -46 16 -2 10 5 19
17 23 48 15 10 32 -41 18z m450 -99 c37 -26 25 -34 -48 -34 -59 0 -68 2 -63
16 12 33 75 43 111 18z"/>
<path d="M2090 975 c0 -118 1 -125 20 -125 19 0 20 7 20 125 0 118 -1 125 -20
125 -19 0 -20 -7 -20 -125z"/>
<path d="M351 1014 c0 -11 3 -14 6 -6 3 7 2 16 -1 19 -3 4 -6 -2 -5 -13z"/>
</g>
</svg>
